<svg xmlns="http://www.w3.org/2000/svg" xmlns:xlink="http://www.w3.org/1999/xlink" width="200" zoomAndPan="magnify" viewBox="0 0 150 149.999998" height="200" preserveAspectRatio="xMidYMid meet" version="1.0"><defs><clipPath id="83b3cf7e39"><path d="M 75 0 C 33.578125 0 0 33.578125 0 75 C 0 116.421875 33.578125 150 75 150 C 116.421875 150 150 116.421875 150 75 C 150 33.578125 116.421875 0 75 0 Z M 75 0 " clip-rule="nonzero"/></clipPath><clipPath id="2fa54a8afb"><path d="M 18.773438 18.773438 L 131.226562 18.773438 L 131.226562 131.226562 L 18.773438 131.226562 Z M 18.773438 18.773438 " clip-rule="nonzero"/></clipPath><clipPath id="965420f29f"><path d="M 75 18.773438 C 43.949219 18.773438 18.773438 43.949219 18.773438 75 C 18.773438 106.050781 43.949219 131.226562 75 131.226562 C 106.050781 131.226562 131.226562 106.050781 131.226562 75 C 131.226562 43.949219 106.050781 18.773438 75 18.773438 Z M 75 18.773438 " clip-rule="nonzero"/></clipPath><clipPath id="fa6276c992"><path d="M 18.773438 18.773438 L 131.214844 18.773438 L 131.214844 131.214844 L 18.773438 131.214844 Z M 18.773438 18.773438 " clip-rule="nonzero"/></clipPath><clipPath id="1299ff0486"><path d="M 74.996094 18.773438 C 43.945312 18.773438 18.773438 43.945312 18.773438 74.996094 C 18.773438 106.046875 43.945312 131.214844 74.996094 131.214844 C 106.046875 131.214844 131.214844 106.046875 131.214844 74.996094 C 131.214844 43.945312 106.046875 18.773438 74.996094 18.773438 Z M 74.996094 18.773438 " clip-rule="nonzero"/></clipPath><clipPath id="bd96c91cd5"><path d="M 28.355469 28.355469 L 121.644531 28.355469 L 121.644531 121.644531 L 28.355469 121.644531 Z M 28.355469 28.355469 " clip-rule="nonzero"/></clipPath><clipPath id="cccdbb51d7"><path d="M 75 28.355469 C 49.238281 28.355469 28.355469 49.238281 28.355469 75 C 28.355469 100.761719 49.238281 121.644531 75 121.644531 C 100.761719 121.644531 121.644531 100.761719 121.644531 75 C 121.644531 49.238281 100.761719 28.355469 75 28.355469 Z M 75 28.355469 " clip-rule="nonzero"/></clipPath><clipPath id="75373675b9"><path d="M 9 9 L 74.996094 9 L 74.996094 74.996094 L 9 74.996094 Z M 9 9 " clip-rule="nonzero"/></clipPath><clipPath id="4ed9d37275"><path d="M 8.996094 20.246094 L 8.996094 63.75 C 8.996094 69.964844 14.03125 75 20.246094 75 L 63.75 75 C 69.964844 75 75 69.964844 75 63.75 L 75 20.246094 C 75 14.03125 69.964844 8.996094 63.75 8.996094 L 20.246094 8.996094 C 14.03125 8.996094 8.996094 14.03125 8.996094 20.246094 Z M 8.996094 20.246094 " clip-rule="nonzero"/></clipPath><clipPath id="8866054779"><path d="M 9 75.277344 L 74.996094 75.277344 L 74.996094 141.277344 L 9 141.277344 Z M 9 75.277344 " clip-rule="nonzero"/></clipPath><clipPath id="aa3d233cc5"><path d="M 20.246094 141.277344 L 63.75 141.277344 C 69.964844 141.277344 75 136.242188 75 130.027344 L 75 86.523438 C 75 80.3125 69.964844 75.273438 63.75 75.273438 L 20.246094 75.273438 C 14.03125 75.273438 8.996094 80.3125 8.996094 86.523438 L 8.996094 130.027344 C 8.996094 136.242188 14.03125 141.277344 20.246094 141.277344 Z M 20.246094 141.277344 " clip-rule="nonzero"/></clipPath><clipPath id="917f73fa66"><path d="M 75.277344 9 L 141.277344 9 L 141.277344 74.996094 L 75.277344 74.996094 Z M 75.277344 9 " clip-rule="nonzero"/></clipPath><clipPath id="0d9ba2e55c"><path d="M 130.027344 8.996094 L 86.523438 8.996094 C 80.3125 8.996094 75.273438 14.03125 75.273438 20.246094 L 75.273438 63.75 C 75.273438 69.964844 80.3125 75 86.523438 75 L 130.027344 75 C 136.242188 75 141.277344 69.964844 141.277344 63.75 L 141.277344 20.246094 C 141.277344 14.03125 136.242188 8.996094 130.027344 8.996094 Z M 130.027344 8.996094 " clip-rule="nonzero"/></clipPath><clipPath id="d35acb7e43"><path d="M 75.277344 75.277344 L 141.277344 75.277344 L 141.277344 141.277344 L 75.277344 141.277344 Z M 75.277344 75.277344 " clip-rule="nonzero"/></clipPath><clipPath id="2446b4ec85"><path d="M 141.277344 130.027344 L 141.277344 86.523438 C 141.277344 80.3125 136.242188 75.273438 130.027344 75.273438 L 86.523438 75.273438 C 80.3125 75.273438 75.273438 80.3125 75.273438 86.523438 L 75.273438 130.027344 C 75.273438 136.242188 80.3125 141.277344 86.523438 141.277344 L 130.027344 141.277344 C 136.242188 141.277344 141.277344 136.242188 141.277344 130.027344 Z M 141.277344 130.027344 " clip-rule="nonzero"/></clipPath></defs><g clip-path="url(#83b3cf7e39)"><rect x="-15" width="180" fill="#ffffff" y="-15" height="179.999997" fill-opacity="1"/><path stroke-linecap="butt" transform="matrix(0.75, 0, 0, 0.75, 0.00000125, 0.000002)" fill="none" stroke-linejoin="miter" d="M 99.999998 -0.00000266667 C 44.770831 -0.00000266667 -0.00000166667 44.77083 -0.00000166667 99.999997 C -0.00000166667 155.229163 44.770831 199.999996 99.999998 199.999996 C 155.229164 199.999996 199.999997 155.229163 199.999997 99.999997 C 199.999997 44.77083 155.229164 -0.00000266667 99.999998 -0.00000266667 Z M 99.999998 -0.00000266667 " stroke="#000000" stroke-width="4" stroke-opacity="1" stroke-miterlimit="4"/></g><g clip-path="url(#2fa54a8afb)"><g clip-path="url(#965420f29f)"><path fill="#e0e0e0" d="M 18.773438 18.773438 L 131.226562 18.773438 L 131.226562 131.226562 L 18.773438 131.226562 Z M 18.773438 18.773438 " fill-opacity="1" fill-rule="nonzero"/></g></g><g clip-path="url(#fa6276c992)"><g clip-path="url(#1299ff0486)"><path stroke-linecap="butt" transform="matrix(0.75, 0, 0, 0.75, 18.774447, 18.774435)" fill="none" stroke-linejoin="miter" d="M 74.962201 -0.00132945 C 33.561157 -0.00132945 -0.00134541 33.561173 -0.00134541 74.962217 C -0.00134541 116.363261 33.561157 149.920554 74.962201 149.920554 C 116.363245 149.920554 149.920538 116.363261 149.920538 74.962217 C 149.920538 33.561173 116.363245 -0.00132945 74.962201 -0.00132945 Z M 74.962201 -0.00132945 " stroke="#000000" stroke-width="2" stroke-opacity="1" stroke-miterlimit="4"/></g></g><g clip-path="url(#bd96c91cd5)"><g clip-path="url(#cccdbb51d7)"><path fill="#b0b0b0" d="M 28.355469 28.355469 L 121.644531 28.355469 L 121.644531 121.644531 L 28.355469 121.644531 Z M 28.355469 28.355469 " fill-opacity="1" fill-rule="nonzero"/></g></g><path stroke-linecap="butt" transform="matrix(0, 0.75, -0.75, 0, 75.370902, 4.634855)" fill="none" stroke-linejoin="miter" d="M 0.00248456 0.499745 L 12.387902 0.499745 " stroke="#000000" stroke-width="1" stroke-opacity="1" stroke-miterlimit="4"/><path stroke-linecap="butt" transform="matrix(0.75, 0, 0, 0.75, 135.809643, 74.624998)" fill="none" stroke-linejoin="miter" d="M -0.0013989 0.500003 L 12.384018 0.500003 " stroke="#000000" stroke-width="1" stroke-opacity="1" stroke-miterlimit="4"/><path stroke-linecap="butt" transform="matrix(0, 0.75, -0.75, 0, 75.370902, 135.754096)" fill="none" stroke-linejoin="miter" d="M -0.000252575 0.499745 L 12.385165 0.499745 " stroke="#000000" stroke-width="1" stroke-opacity="1" stroke-miterlimit="4"/><path stroke-linecap="butt" transform="matrix(0.75, 0, 0, 0.75, 4.960562, 74.624998)" fill="none" stroke-linejoin="miter" d="M 0.000501093 0.500003 L 12.385918 0.500003 " stroke="#000000" stroke-width="1" stroke-opacity="1" stroke-miterlimit="4"/><g clip-path="url(#75373675b9)"><g clip-path="url(#4ed9d37275)"><path fill="#000000" d="M 75 10.222656 C 39.28125 10.222656 10.222656 39.28125 10.222656 75 L 9.007812 75 C 9.007812 73.917969 9.03125 72.839844 9.085938 71.761719 C 9.136719 70.683594 9.214844 69.605469 9.320312 68.53125 C 9.425781 67.453125 9.558594 66.382812 9.714844 65.3125 C 9.875 64.246094 10.058594 63.179688 10.265625 62.121094 C 10.476562 61.0625 10.714844 60.007812 10.976562 58.960938 C 11.238281 57.914062 11.523438 56.871094 11.835938 55.835938 C 12.152344 54.804688 12.488281 53.777344 12.851562 52.761719 C 13.214844 51.742188 13.605469 50.734375 14.015625 49.738281 C 14.429688 48.738281 14.867188 47.75 15.328125 46.773438 C 15.789062 45.796875 16.273438 44.832031 16.785156 43.878906 C 17.292969 42.929688 17.824219 41.988281 18.378906 41.0625 C 18.933594 40.132812 19.511719 39.222656 20.113281 38.324219 C 20.714844 37.425781 21.335938 36.542969 21.976562 35.675781 C 22.621094 34.808594 23.285156 33.957031 23.972656 33.121094 C 24.65625 32.285156 25.363281 31.46875 26.085938 30.667969 C 26.8125 29.867188 27.558594 29.085938 28.320312 28.320312 C 29.085938 27.558594 29.867188 26.8125 30.667969 26.085938 C 31.46875 25.363281 32.285156 24.65625 33.121094 23.972656 C 33.957031 23.285156 34.808594 22.621094 35.675781 21.976562 C 36.542969 21.335938 37.425781 20.714844 38.324219 20.113281 C 39.222656 19.511719 40.132812 18.933594 41.0625 18.378906 C 41.988281 17.824219 42.929688 17.292969 43.878906 16.785156 C 44.832031 16.273438 45.796875 15.789062 46.773438 15.328125 C 47.75 14.867188 48.738281 14.429688 49.738281 14.015625 C 50.734375 13.605469 51.742188 13.214844 52.761719 12.851562 C 53.777344 12.488281 54.804688 12.152344 55.835938 11.835938 C 56.871094 11.523438 57.914062 11.238281 58.960938 10.976562 C 60.007812 10.714844 61.0625 10.476562 62.121094 10.265625 C 63.179688 10.058594 64.246094 9.875 65.3125 9.714844 C 66.382812 9.558594 67.453125 9.425781 68.53125 9.320312 C 69.605469 9.214844 70.683594 9.136719 71.761719 9.085938 C 72.839844 9.03125 73.917969 9.007812 75 9.007812 " fill-opacity="1" fill-rule="nonzero"/></g></g><g clip-path="url(#8866054779)"><g clip-path="url(#aa3d233cc5)"><path fill="#000000" d="M 10.222656 75.277344 C 10.222656 110.992188 39.28125 140.054688 75 140.054688 L 75 141.265625 C 73.917969 141.269531 72.839844 141.242188 71.761719 141.191406 C 70.683594 141.136719 69.605469 141.058594 68.53125 140.953125 C 67.453125 140.847656 66.382812 140.71875 65.3125 140.558594 C 64.246094 140.402344 63.179688 140.21875 62.121094 140.007812 C 61.0625 139.796875 60.007812 139.5625 58.960938 139.300781 C 57.914062 139.039062 56.871094 138.75 55.835938 138.4375 C 54.804688 138.125 53.777344 137.785156 52.761719 137.421875 C 51.742188 137.058594 50.734375 136.671875 49.738281 136.257812 C 48.738281 135.84375 47.75 135.40625 46.773438 134.945312 C 45.796875 134.484375 44.832031 134 43.878906 133.492188 C 42.929688 132.980469 41.988281 132.449219 41.0625 131.894531 C 40.132812 131.339844 39.222656 130.761719 38.324219 130.164062 C 37.425781 129.5625 36.542969 128.941406 35.675781 128.296875 C 34.808594 127.652344 33.957031 126.988281 33.121094 126.304688 C 32.285156 125.621094 31.46875 124.914062 30.667969 124.1875 C 29.867188 123.464844 29.085938 122.71875 28.320312 121.953125 C 27.558594 121.191406 26.8125 120.410156 26.085938 119.609375 C 25.363281 118.808594 24.65625 117.988281 23.972656 117.15625 C 23.285156 116.320312 22.621094 115.46875 21.976562 114.601562 C 21.335938 113.734375 20.714844 112.851562 20.113281 111.953125 C 19.511719 111.054688 18.933594 110.140625 18.378906 109.214844 C 17.824219 108.289062 17.292969 107.347656 16.785156 106.394531 C 16.273438 105.441406 15.789062 104.476562 15.328125 103.5 C 14.867188 102.523438 14.429688 101.535156 14.015625 100.539062 C 13.605469 99.539062 13.214844 98.53125 12.851562 97.515625 C 12.488281 96.496094 12.152344 95.472656 11.835938 94.4375 C 11.523438 93.402344 11.238281 92.363281 10.976562 91.316406 C 10.714844 90.265625 10.476562 89.214844 10.265625 88.152344 C 10.058594 87.09375 9.875 86.03125 9.714844 84.960938 C 9.558594 83.890625 9.425781 82.820312 9.320312 81.746094 C 9.214844 80.671875 9.136719 79.59375 9.085938 78.515625 C 9.03125 77.433594 9.007812 76.355469 9.007812 75.277344 " fill-opacity="1" fill-rule="nonzero"/></g></g><g clip-path="url(#917f73fa66)"><g clip-path="url(#0d9ba2e55c)"><path fill="#000000" d="M 140.054688 75 C 140.054688 39.28125 110.992188 10.222656 75.277344 10.222656 L 75.277344 9.007812 C 76.355469 9.007812 77.433594 9.03125 78.515625 9.085938 C 79.59375 9.136719 80.671875 9.214844 81.746094 9.320312 C 82.820312 9.425781 83.890625 9.558594 84.960938 9.714844 C 86.03125 9.875 87.09375 10.058594 88.152344 10.265625 C 89.214844 10.476562 90.265625 10.714844 91.316406 10.976562 C 92.363281 11.238281 93.402344 11.523438 94.4375 11.835938 C 95.472656 12.152344 96.496094 12.488281 97.515625 12.851562 C 98.53125 13.214844 99.539062 13.605469 100.539062 14.015625 C 101.535156 14.429688 102.523438 14.867188 103.5 15.328125 C 104.476562 15.789062 105.441406 16.273438 106.394531 16.785156 C 107.347656 17.292969 108.289062 17.824219 109.214844 18.378906 C 110.140625 18.933594 111.054688 19.511719 111.953125 20.113281 C 112.851562 20.714844 113.734375 21.335938 114.601562 21.976562 C 115.46875 22.621094 116.320312 23.285156 117.15625 23.972656 C 117.988281 24.65625 118.808594 25.363281 119.609375 26.085938 C 120.410156 26.8125 121.191406 27.558594 121.953125 28.320312 C 122.71875 29.085938 123.464844 29.867188 124.1875 30.667969 C 124.914062 31.46875 125.621094 32.285156 126.304688 33.121094 C 126.988281 33.957031 127.652344 34.808594 128.296875 35.675781 C 128.941406 36.542969 129.5625 37.425781 130.164062 38.324219 C 130.761719 39.222656 131.339844 40.132812 131.894531 41.0625 C 132.449219 41.988281 132.980469 42.929688 133.492188 43.878906 C 134 44.832031 134.484375 45.796875 134.945312 46.773438 C 135.40625 47.75 135.84375 48.738281 136.257812 49.738281 C 136.671875 50.734375 137.058594 51.742188 137.421875 52.761719 C 137.785156 53.777344 138.125 54.804688 138.4375 55.835938 C 138.75 56.871094 139.039062 57.914062 139.300781 58.960938 C 139.5625 60.007812 139.796875 61.0625 140.007812 62.121094 C 140.21875 63.179688 140.402344 64.246094 140.558594 65.3125 C 140.71875 66.382812 140.847656 67.453125 140.953125 68.53125 C 141.058594 69.605469 141.136719 70.683594 141.191406 71.761719 C 141.242188 72.839844 141.269531 73.917969 141.265625 75 " fill-opacity="1" fill-rule="nonzero"/></g></g><g clip-path="url(#d35acb7e43)"><g clip-path="url(#2446b4ec85)"><path fill="#000000" d="M 75.277344 140.054688 C 110.992188 140.054688 140.054688 110.992188 140.054688 75.277344 L 141.265625 75.277344 C 141.269531 76.355469 141.242188 77.433594 141.191406 78.515625 C 141.136719 79.59375 141.058594 80.671875 140.953125 81.746094 C 140.847656 82.820312 140.71875 83.890625 140.558594 84.960938 C 140.402344 86.03125 140.21875 87.09375 140.007812 88.152344 C 139.796875 89.214844 139.5625 90.265625 139.300781 91.316406 C 139.039062 92.363281 138.75 93.402344 138.4375 94.4375 C 138.125 95.472656 137.785156 96.496094 137.421875 97.515625 C 137.058594 98.53125 136.671875 99.539062 136.257812 100.539062 C 135.84375 101.535156 135.40625 102.523438 134.945312 103.5 C 134.484375 104.476562 134 105.441406 133.492188 106.394531 C 132.980469 107.347656 132.449219 108.289062 131.894531 109.214844 C 131.339844 110.140625 130.761719 111.054688 130.164062 111.953125 C 129.5625 112.851562 128.941406 113.734375 128.296875 114.601562 C 127.652344 115.46875 126.988281 116.320312 126.304688 117.15625 C 125.621094 117.988281 124.914062 118.808594 124.1875 119.609375 C 123.464844 120.410156 122.71875 121.191406 121.953125 121.953125 C 121.191406 122.71875 120.410156 123.464844 119.609375 124.1875 C 118.808594 124.914062 117.988281 125.621094 117.15625 126.304688 C 116.320312 126.988281 115.46875 127.652344 114.601562 128.296875 C 113.734375 128.941406 112.851562 129.5625 111.953125 130.164062 C 111.054688 130.761719 110.140625 131.339844 109.214844 131.894531 C 108.289062 132.449219 107.347656 132.980469 106.394531 133.492188 C 105.441406 134 104.476562 134.484375 103.5 134.945312 C 102.523438 135.40625 101.535156 135.84375 100.539062 136.257812 C 99.539062 136.671875 98.53125 137.058594 97.515625 137.421875 C 96.496094 137.785156 95.472656 138.125 94.4375 138.4375 C 93.402344 138.75 92.363281 139.039062 91.316406 139.300781 C 90.265625 139.5625 89.214844 139.796875 88.152344 140.007812 C 87.09375 140.21875 86.03125 140.402344 84.960938 140.558594 C 83.890625 140.71875 82.820312 140.847656 81.746094 140.953125 C 80.671875 141.058594 79.59375 141.136719 78.515625 141.191406 C 77.433594 141.242188 76.355469 141.269531 75.277344 141.265625 " fill-opacity="1" fill-rule="nonzero"/></g></g></svg>