<svg xmlns="http://www.w3.org/2000/svg" xmlns:xlink="http://www.w3.org/1999/xlink" width="200" zoomAndPan="magnify" viewBox="0 0 150 149.999998" height="200" preserveAspectRatio="xMidYMid meet" version="1.0"><defs><clipPath id="772fa26f5f"><path d="M 75 0 C 33.578125 0 0 33.578125 0 75 C 0 116.421875 33.578125 150 75 150 C 116.421875 150 150 116.421875 150 75 C 150 33.578125 116.421875 0 75 0 Z M 75 0 " clip-rule="nonzero"/></clipPath><clipPath id="45ce362561"><path d="M 18.773438 18.773438 L 131.226562 18.773438 L 131.226562 131.226562 L 18.773438 131.226562 Z M 18.773438 18.773438 " clip-rule="nonzero"/></clipPath><clipPath id="0a647af437"><path d="M 75 18.773438 C 43.949219 18.773438 18.773438 43.949219 18.773438 75 C 18.773438 106.050781 43.949219 131.226562 75 131.226562 C 106.050781 131.226562 131.226562 106.050781 131.226562 75 C 131.226562 43.949219 106.050781 18.773438 75 18.773438 Z M 75 18.773438 " clip-rule="nonzero"/></clipPath><clipPath id="e8c96ab1f0"><path d="M 18.773438 18.773438 L 131.214844 18.773438 L 131.214844 131.214844 L 18.773438 131.214844 Z M 18.773438 18.773438 " clip-rule="nonzero"/></clipPath><clipPath id="8e7f0af4e8"><path d="M 74.996094 18.773438 C 43.945312 18.773438 18.773438 43.945312 18.773438 74.996094 C 18.773438 106.046875 43.945312 131.214844 74.996094 131.214844 C 106.046875 131.214844 131.214844 106.046875 131.214844 74.996094 C 131.214844 43.945312 106.046875 18.773438 74.996094 18.773438 Z M 74.996094 18.773438 " clip-rule="nonzero"/></clipPath><clipPath id="836b7cb564"><path d="M 28.355469 28.355469 L 121.644531 28.355469 L 121.644531 121.644531 L 28.355469 121.644531 Z M 28.355469 28.355469 " clip-rule="nonzero"/></clipPath><clipPath id="5cd9d7cad7"><path d="M 75 28.355469 C 49.238281 28.355469 28.355469 49.238281 28.355469 75 C 28.355469 100.761719 49.238281 121.644531 75 121.644531 C 100.761719 121.644531 121.644531 100.761719 121.644531 75 C 121.644531 49.238281 100.761719 28.355469 75 28.355469 Z M 75 28.355469 " clip-rule="nonzero"/></clipPath><clipPath id="dc36e455c7"><path d="M 72 55.933594 L 78 55.933594 L 78 62 L 72 62 Z M 72 55.933594 " clip-rule="nonzero"/></clipPath><clipPath id="91a6cf72ff"><path d="M 55 87 L 95 87 L 95 94.183594 L 55 94.183594 Z M 55 87 " clip-rule="nonzero"/></clipPath><clipPath id="4955476d59"><path d="M 9 9 L 74.996094 9 L 74.996094 74.996094 L 9 74.996094 Z M 9 9 " clip-rule="nonzero"/></clipPath><clipPath id="34b2fcd073"><path d="M 8.996094 20.246094 L 8.996094 63.75 C 8.996094 69.964844 14.03125 75 20.246094 75 L 63.75 75 C 69.964844 75 75 69.964844 75 63.75 L 75 20.246094 C 75 14.03125 69.964844 8.996094 63.75 8.996094 L 20.246094 8.996094 C 14.03125 8.996094 8.996094 14.03125 8.996094 20.246094 Z M 8.996094 20.246094 " clip-rule="nonzero"/></clipPath><clipPath id="597e28ac3b"><path d="M 9 75.277344 L 74.996094 75.277344 L 74.996094 141.277344 L 9 141.277344 Z M 9 75.277344 " clip-rule="nonzero"/></clipPath><clipPath id="7afc5f032b"><path d="M 20.246094 141.277344 L 63.75 141.277344 C 69.964844 141.277344 75 136.242188 75 130.027344 L 75 86.523438 C 75 80.3125 69.964844 75.273438 63.75 75.273438 L 20.246094 75.273438 C 14.03125 75.273438 8.996094 80.3125 8.996094 86.523438 L 8.996094 130.027344 C 8.996094 136.242188 14.03125 141.277344 20.246094 141.277344 Z M 20.246094 141.277344 " clip-rule="nonzero"/></clipPath><clipPath id="ed35dcec03"><path d="M 75.277344 9 L 141.277344 9 L 141.277344 74.996094 L 75.277344 74.996094 Z M 75.277344 9 " clip-rule="nonzero"/></clipPath><clipPath id="2333fe2138"><path d="M 130.027344 8.996094 L 86.523438 8.996094 C 80.3125 8.996094 75.273438 14.03125 75.273438 20.246094 L 75.273438 63.75 C 75.273438 69.964844 80.3125 75 86.523438 75 L 130.027344 75 C 136.242188 75 141.277344 69.964844 141.277344 63.75 L 141.277344 20.246094 C 141.277344 14.03125 136.242188 8.996094 130.027344 8.996094 Z M 130.027344 8.996094 " clip-rule="nonzero"/></clipPath><clipPath id="7dca7a05b1"><path d="M 75.28125 75.28125 L 141.28125 75.28125 L 141.28125 141.28125 L 75.28125 141.28125 Z M 75.28125 75.28125 " clip-rule="nonzero"/></clipPath><clipPath id="08e94e91b8"><path d="M 141.28125 130.03125 L 141.28125 86.25 C 141.28125 80.035156 136.246094 75 130.03125 75 L 86.25 75 C 80.035156 75 75 80.035156 75 86.25 L 75 130.03125 C 75 136.246094 80.035156 141.28125 86.25 141.28125 L 130.03125 141.28125 C 136.246094 141.28125 141.28125 136.246094 141.28125 130.03125 Z M 141.28125 130.03125 " clip-rule="nonzero"/></clipPath></defs><g clip-path="url(#772fa26f5f)"><rect x="-15" width="180" fill="#000000" y="-15" height="179.999997" fill-opacity="1"/><path stroke-linecap="butt" transform="matrix(0.75, 0, 0, 0.75, 0.00000125, 0.000002)" fill="none" stroke-linejoin="miter" d="M 99.999998 -0.00000266667 C 44.770831 -0.00000266667 -0.00000166667 44.77083 -0.00000166667 99.999997 C -0.00000166667 155.229163 44.770831 199.999996 99.999998 199.999996 C 155.229164 199.999996 199.999997 155.229163 199.999997 99.999997 C 199.999997 44.77083 155.229164 -0.00000266667 99.999998 -0.00000266667 Z M 99.999998 -0.00000266667 " stroke="#d4af37" stroke-width="4" stroke-opacity="1" stroke-miterlimit="4"/></g><g clip-path="url(#45ce362561)"><g clip-path="url(#0a647af437)"><path fill="#333333" d="M 18.773438 18.773438 L 131.226562 18.773438 L 131.226562 131.226562 L 18.773438 131.226562 Z M 18.773438 18.773438 " fill-opacity="1" fill-rule="nonzero"/></g></g><g clip-path="url(#e8c96ab1f0)"><g clip-path="url(#8e7f0af4e8)"><path stroke-linecap="butt" transform="matrix(0.75, 0, 0, 0.75, 18.774447, 18.774447)" fill="none" stroke-linejoin="miter" d="M 74.962201 -0.00134641 C 33.561157 -0.00134641 -0.00134541 33.561156 -0.00134541 74.9622 C -0.00134541 116.363244 33.561157 149.920537 74.962201 149.920537 C 116.363245 149.920537 149.920538 116.363244 149.920538 74.9622 C 149.920538 33.561156 116.363245 -0.00134641 74.962201 -0.00134641 Z M 74.962201 -0.00134641 " stroke="#d4af37" stroke-width="2" stroke-opacity="1" stroke-miterlimit="4"/></g></g><g clip-path="url(#836b7cb564)"><g clip-path="url(#5cd9d7cad7)"><path fill="#505050" d="M 28.355469 28.355469 L 121.644531 28.355469 L 121.644531 121.644531 L 28.355469 121.644531 Z M 28.355469 28.355469 " fill-opacity="1" fill-rule="nonzero"/></g></g><g clip-path="url(#dc36e455c7)"><path fill="#d4af37" d="M 77.910156 58.824219 C 77.910156 59.207031 77.835938 59.574219 77.691406 59.929688 C 77.542969 60.28125 77.335938 60.59375 77.066406 60.867188 C 76.792969 61.136719 76.480469 61.347656 76.128906 61.492188 C 75.773438 61.640625 75.40625 61.710938 75.023438 61.710938 C 74.636719 61.710938 74.269531 61.640625 73.914062 61.492188 C 73.5625 61.347656 73.25 61.136719 72.980469 60.867188 C 72.707031 60.59375 72.5 60.28125 72.351562 59.929688 C 72.207031 59.574219 72.132812 59.207031 72.132812 58.824219 C 72.132812 58.441406 72.207031 58.070312 72.351562 57.71875 C 72.5 57.363281 72.707031 57.050781 72.980469 56.78125 C 73.25 56.507812 73.5625 56.300781 73.914062 56.152344 C 74.269531 56.007812 74.636719 55.933594 75.023438 55.933594 C 75.40625 55.933594 75.773438 56.007812 76.128906 56.152344 C 76.480469 56.300781 76.792969 56.507812 77.066406 56.78125 C 77.335938 57.050781 77.542969 57.363281 77.691406 57.71875 C 77.835938 58.070312 77.910156 58.441406 77.910156 58.824219 Z M 77.910156 58.824219 " fill-opacity="1" fill-rule="nonzero"/></g><path fill="#d4af37" d="M 63.347656 63.316406 C 63.347656 63.695312 63.273438 64.0625 63.128906 64.414062 C 62.980469 64.765625 62.773438 65.074219 62.507812 65.34375 C 62.238281 65.613281 61.925781 65.820312 61.574219 65.964844 C 61.222656 66.113281 60.859375 66.183594 60.476562 66.183594 C 60.097656 66.183594 59.730469 66.113281 59.378906 65.964844 C 59.027344 65.820312 58.71875 65.613281 58.449219 65.34375 C 58.179688 65.074219 57.972656 64.765625 57.824219 64.414062 C 57.679688 64.0625 57.609375 63.695312 57.609375 63.316406 C 57.609375 62.933594 57.679688 62.570312 57.824219 62.21875 C 57.972656 61.867188 58.179688 61.554688 58.449219 61.285156 C 58.71875 61.019531 59.027344 60.808594 59.378906 60.664062 C 59.730469 60.519531 60.097656 60.445312 60.476562 60.445312 C 60.859375 60.445312 61.222656 60.519531 61.574219 60.664062 C 61.925781 60.808594 62.238281 61.019531 62.507812 61.285156 C 62.773438 61.554688 62.980469 61.867188 63.128906 62.21875 C 63.273438 62.570312 63.347656 62.933594 63.347656 63.316406 Z M 63.347656 63.316406 " fill-opacity="1" fill-rule="nonzero"/><path fill="#d4af37" d="M 92.199219 63.316406 C 92.199219 63.695312 92.125 64.0625 91.980469 64.414062 C 91.832031 64.765625 91.625 65.074219 91.355469 65.34375 C 91.085938 65.613281 90.777344 65.820312 90.425781 65.964844 C 90.074219 66.113281 89.707031 66.183594 89.328125 66.183594 C 88.945312 66.183594 88.582031 66.113281 88.230469 65.964844 C 87.878906 65.820312 87.566406 65.613281 87.296875 65.34375 C 87.027344 65.074219 86.820312 64.765625 86.675781 64.414062 C 86.53125 64.0625 86.457031 63.695312 86.457031 63.316406 C 86.457031 62.933594 86.53125 62.566406 86.675781 62.214844 C 86.820312 61.863281 87.027344 61.554688 87.296875 61.285156 C 87.566406 61.015625 87.878906 60.808594 88.230469 60.664062 C 88.582031 60.515625 88.945312 60.445312 89.328125 60.445312 C 89.707031 60.445312 90.074219 60.515625 90.425781 60.664062 C 90.777344 60.808594 91.085938 61.015625 91.355469 61.285156 C 91.625 61.554688 91.832031 61.863281 91.980469 62.214844 C 92.125 62.566406 92.199219 62.933594 92.199219 63.316406 Z M 92.199219 63.316406 " fill-opacity="1" fill-rule="nonzero"/><path fill="#d4af37" d="M 77.613281 86.367188 C 76.078125 86.285156 74.519531 86.332031 72.980469 86.347656 C 72.617188 86.351562 72.289062 86.355469 71.902344 86.386719 C 71.296875 86.433594 70.628906 86.4375 70.082031 86.480469 C 69.273438 86.539062 68.464844 86.605469 67.65625 86.675781 C 65.648438 86.851562 63.484375 87.164062 61.164062 87.609375 C 59.367188 87.953125 57.628906 88.429688 55.867188 88.914062 C 55.832031 88.925781 55.804688 88.914062 55.789062 88.878906 C 55.492188 88.25 55.207031 87.617188 54.9375 86.976562 C 52.558594 81.3125 50.804688 77.152344 49.675781 74.496094 C 49.570312 74.25 49.4375 74.003906 49.453125 73.761719 C 49.488281 73.160156 50.121094 73.160156 50.554688 73.402344 C 51.054688 73.683594 51.550781 73.972656 52.039062 74.277344 C 53.898438 75.433594 55.753906 76.589844 57.609375 77.75 C 57.898438 77.929688 58.914062 78.632812 59.199219 78.601562 C 59.558594 78.566406 59.625 78.253906 59.671875 77.914062 C 60.054688 74.949219 60.457031 71.988281 60.875 69.03125 C 60.976562 68.339844 60.914062 66.558594 62.195312 67.570312 C 62.476562 67.792969 62.851562 68.164062 63.167969 68.4375 C 65.1875 70.167969 67.203125 71.902344 69.214844 73.640625 C 69.65625 74.019531 69.867188 73.800781 70.066406 73.347656 C 71.539062 70.050781 73.015625 66.75 74.492188 63.453125 C 74.589844 63.234375 74.710938 62.871094 74.945312 62.808594 C 75.160156 62.75 75.269531 62.898438 75.351562 63.082031 C 76.886719 66.558594 78.417969 70.039062 79.941406 73.519531 C 80.121094 73.925781 80.550781 73.898438 80.84375 73.636719 C 83.210938 71.570312 85.578125 69.503906 87.945312 67.4375 C 88.386719 67.054688 88.839844 67.316406 88.90625 67.839844 C 89.308594 70.988281 89.714844 74.136719 90.128906 77.289062 C 90.179688 77.675781 90.148438 78.542969 90.648438 78.628906 C 90.839844 78.660156 91.183594 78.425781 91.359375 78.320312 C 94.386719 76.460938 96.96875 74.867188 99.105469 73.53125 C 99.371094 73.367188 99.679688 73.203125 99.988281 73.242188 C 100.324219 73.289062 100.609375 73.574219 100.453125 73.941406 C 98.386719 78.863281 96.296875 83.777344 94.183594 88.679688 C 94.15625 88.75 94.121094 88.816406 94.082031 88.882812 C 94.070312 88.902344 94.054688 88.910156 94.035156 88.910156 C 93.890625 88.894531 93.773438 88.871094 93.683594 88.847656 C 89.992188 87.753906 86.210938 87.035156 82.34375 86.695312 C 81.070312 86.582031 79.964844 86.480469 78.753906 86.425781 C 78.375 86.40625 77.996094 86.386719 77.613281 86.367188 Z M 77.613281 86.367188 " fill-opacity="1" fill-rule="nonzero"/><path fill="#d4af37" d="M 50.753906 69.929688 C 50.753906 70.308594 50.679688 70.675781 50.53125 71.03125 C 50.386719 71.382812 50.179688 71.695312 49.910156 71.964844 C 49.640625 72.234375 49.328125 72.441406 48.976562 72.585938 C 48.625 72.734375 48.257812 72.804688 47.875 72.804688 C 47.492188 72.804688 47.125 72.734375 46.773438 72.585938 C 46.421875 72.441406 46.109375 72.234375 45.839844 71.964844 C 45.570312 71.695312 45.363281 71.382812 45.21875 71.03125 C 45.070312 70.675781 45 70.308594 45 69.929688 C 45 69.546875 45.070312 69.179688 45.21875 68.828125 C 45.363281 68.476562 45.570312 68.164062 45.839844 67.894531 C 46.109375 67.625 46.421875 67.417969 46.773438 67.269531 C 47.125 67.125 47.492188 67.050781 47.875 67.050781 C 48.257812 67.050781 48.625 67.125 48.976562 67.269531 C 49.328125 67.417969 49.640625 67.625 49.910156 67.894531 C 50.179688 68.164062 50.386719 68.476562 50.53125 68.828125 C 50.679688 69.179688 50.753906 69.546875 50.753906 69.929688 Z M 50.753906 69.929688 " fill-opacity="1" fill-rule="nonzero"/><path fill="#d4af37" d="M 105 69.9375 C 105 70.320312 104.925781 70.6875 104.78125 71.039062 C 104.632812 71.394531 104.425781 71.703125 104.15625 71.972656 C 103.886719 72.246094 103.574219 72.453125 103.21875 72.597656 C 102.867188 72.746094 102.5 72.820312 102.117188 72.820312 C 101.734375 72.820312 101.367188 72.746094 101.015625 72.597656 C 100.660156 72.453125 100.347656 72.246094 100.078125 71.972656 C 99.808594 71.703125 99.601562 71.394531 99.453125 71.039062 C 99.308594 70.6875 99.234375 70.320312 99.234375 69.9375 C 99.234375 69.554688 99.308594 69.1875 99.453125 68.832031 C 99.601562 68.480469 99.808594 68.167969 100.078125 67.898438 C 100.347656 67.628906 100.660156 67.421875 101.015625 67.273438 C 101.367188 67.128906 101.734375 67.054688 102.117188 67.054688 C 102.5 67.054688 102.867188 67.128906 103.21875 67.273438 C 103.574219 67.421875 103.886719 67.628906 104.15625 67.898438 C 104.425781 68.167969 104.632812 68.480469 104.78125 68.832031 C 104.925781 69.1875 105 69.554688 105 69.9375 Z M 105 69.9375 " fill-opacity="1" fill-rule="nonzero"/><g clip-path="url(#91a6cf72ff)"><path fill="#d4af37" d="M 75.710938 91.375 C 70.042969 91.277344 64.304688 91.890625 58.789062 93.203125 C 57.777344 93.445312 56.800781 93.734375 55.820312 94.054688 C 55.789062 94.066406 55.777344 94.054688 55.777344 94.023438 L 55.773438 90.675781 C 55.773438 90.652344 55.785156 90.640625 55.804688 90.628906 C 56.164062 90.492188 56.527344 90.371094 56.898438 90.265625 C 60.328125 89.277344 63.828125 88.632812 67.378906 88.28125 C 71.488281 87.875 75.582031 87.761719 79.707031 88.03125 C 84.636719 88.355469 89.410156 89.097656 94.039062 90.605469 C 94.09375 90.621094 94.117188 90.65625 94.117188 90.710938 L 94.109375 93.945312 C 94.109375 94.035156 94.066406 94.066406 93.980469 94.042969 C 90.398438 92.941406 86.773438 92.203125 83.109375 91.828125 C 82.710938 91.789062 82.3125 91.726562 81.832031 91.703125 C 81.640625 91.695312 81.410156 91.609375 81.171875 91.609375 C 80.6875 91.609375 80.171875 91.523438 79.738281 91.507812 C 79.199219 91.488281 78.664062 91.460938 78.128906 91.425781 C 77.328125 91.375 76.550781 91.386719 75.710938 91.375 Z M 75.710938 91.375 " fill-opacity="1" fill-rule="nonzero"/></g><path stroke-linecap="butt" transform="matrix(0, 0.75, -0.75, 0, 75.370902, 4.634882)" fill="none" stroke-linejoin="miter" d="M 0.00244936 0.499745 L 12.387867 0.499745 " stroke="#d4af37" stroke-width="1" stroke-opacity="1" stroke-miterlimit="4"/><path stroke-linecap="butt" transform="matrix(0.75, 0, 0, 0.75, 135.809643, 74.624998)" fill="none" stroke-linejoin="miter" d="M -0.0013989 0.500003 L 12.384018 0.500003 " stroke="#d4af37" stroke-width="1" stroke-opacity="1" stroke-miterlimit="4"/><path stroke-linecap="butt" transform="matrix(0, 0.75, -0.75, 0, 75.370902, 135.754096)" fill="none" stroke-linejoin="miter" d="M -0.000252575 0.499745 L 12.385165 0.499745 " stroke="#d4af37" stroke-width="1" stroke-opacity="1" stroke-miterlimit="4"/><path stroke-linecap="butt" transform="matrix(0.75, 0, 0, 0.75, 4.960562, 74.624998)" fill="none" stroke-linejoin="miter" d="M 0.000501093 0.500003 L 12.385918 0.500003 " stroke="#d4af37" stroke-width="1" stroke-opacity="1" stroke-miterlimit="4"/><g clip-path="url(#4955476d59)"><g clip-path="url(#34b2fcd073)"><path fill="#d4af37" d="M 75 10.222656 C 39.28125 10.222656 10.222656 39.28125 10.222656 75 L 9.007812 75 C 9.007812 73.917969 9.03125 72.839844 9.085938 71.761719 C 9.136719 70.683594 9.214844 69.605469 9.320312 68.53125 C 9.425781 67.453125 9.558594 66.382812 9.714844 65.3125 C 9.875 64.246094 10.058594 63.179688 10.265625 62.121094 C 10.476562 61.0625 10.714844 60.007812 10.976562 58.960938 C 11.238281 57.914062 11.523438 56.871094 11.835938 55.835938 C 12.152344 54.804688 12.488281 53.777344 12.851562 52.761719 C 13.214844 51.742188 13.605469 50.734375 14.015625 49.738281 C 14.429688 48.738281 14.867188 47.75 15.328125 46.773438 C 15.789062 45.796875 16.273438 44.832031 16.785156 43.878906 C 17.292969 42.929688 17.824219 41.988281 18.378906 41.0625 C 18.933594 40.132812 19.511719 39.222656 20.113281 38.324219 C 20.714844 37.425781 21.335938 36.542969 21.976562 35.675781 C 22.621094 34.808594 23.285156 33.957031 23.972656 33.121094 C 24.65625 32.285156 25.363281 31.46875 26.085938 30.667969 C 26.8125 29.867188 27.558594 29.085938 28.320312 28.320312 C 29.085938 27.558594 29.867188 26.8125 30.667969 26.085938 C 31.46875 25.363281 32.285156 24.65625 33.121094 23.972656 C 33.957031 23.285156 34.808594 22.621094 35.675781 21.976562 C 36.542969 21.335938 37.425781 20.714844 38.324219 20.113281 C 39.222656 19.511719 40.132812 18.933594 41.0625 18.378906 C 41.988281 17.824219 42.929688 17.292969 43.878906 16.785156 C 44.832031 16.273438 45.796875 15.789062 46.773438 15.328125 C 47.75 14.867188 48.738281 14.429688 49.738281 14.015625 C 50.734375 13.605469 51.742188 13.214844 52.761719 12.851562 C 53.777344 12.488281 54.804688 12.152344 55.835938 11.835938 C 56.871094 11.523438 57.914062 11.238281 58.960938 10.976562 C 60.007812 10.714844 61.0625 10.476562 62.121094 10.265625 C 63.179688 10.058594 64.246094 9.875 65.3125 9.714844 C 66.382812 9.558594 67.453125 9.425781 68.53125 9.320312 C 69.605469 9.214844 70.683594 9.136719 71.761719 9.085938 C 72.839844 9.03125 73.917969 9.007812 75 9.007812 " fill-opacity="1" fill-rule="nonzero"/></g></g><g clip-path="url(#597e28ac3b)"><g clip-path="url(#7afc5f032b)"><path fill="#d4af37" d="M 10.222656 75.277344 C 10.222656 110.992188 39.28125 140.054688 75 140.054688 L 75 141.265625 C 73.917969 141.269531 72.839844 141.242188 71.761719 141.191406 C 70.683594 141.136719 69.605469 141.058594 68.53125 140.953125 C 67.453125 140.847656 66.382812 140.71875 65.3125 140.558594 C 64.246094 140.402344 63.179688 140.21875 62.121094 140.007812 C 61.0625 139.796875 60.007812 139.5625 58.960938 139.300781 C 57.914062 139.039062 56.871094 138.75 55.835938 138.4375 C 54.804688 138.125 53.777344 137.785156 52.761719 137.421875 C 51.742188 137.058594 50.734375 136.671875 49.738281 136.257812 C 48.738281 135.84375 47.75 135.40625 46.773438 134.945312 C 45.796875 134.484375 44.832031 134 43.878906 133.492188 C 42.929688 132.980469 41.988281 132.449219 41.0625 131.894531 C 40.132812 131.339844 39.222656 130.761719 38.324219 130.164062 C 37.425781 129.5625 36.542969 128.941406 35.675781 128.296875 C 34.808594 127.652344 33.957031 126.988281 33.121094 126.304688 C 32.285156 125.621094 31.46875 124.914062 30.667969 124.1875 C 29.867188 123.464844 29.085938 122.71875 28.320312 121.953125 C 27.558594 121.191406 26.8125 120.410156 26.085938 119.609375 C 25.363281 118.808594 24.65625 117.988281 23.972656 117.15625 C 23.285156 116.320312 22.621094 115.46875 21.976562 114.601562 C 21.335938 113.734375 20.714844 112.851562 20.113281 111.953125 C 19.511719 111.054688 18.933594 110.140625 18.378906 109.214844 C 17.824219 108.289062 17.292969 107.347656 16.785156 106.394531 C 16.273438 105.441406 15.789062 104.476562 15.328125 103.5 C 14.867188 102.523438 14.429688 101.535156 14.015625 100.539062 C 13.605469 99.539062 13.214844 98.53125 12.851562 97.515625 C 12.488281 96.496094 12.152344 95.472656 11.835938 94.4375 C 11.523438 93.402344 11.238281 92.363281 10.976562 91.316406 C 10.714844 90.265625 10.476562 89.214844 10.265625 88.152344 C 10.058594 87.09375 9.875 86.03125 9.714844 84.960938 C 9.558594 83.890625 9.425781 82.820312 9.320312 81.746094 C 9.214844 80.671875 9.136719 79.59375 9.085938 78.515625 C 9.03125 77.433594 9.007812 76.355469 9.007812 75.277344 " fill-opacity="1" fill-rule="nonzero"/></g></g><g clip-path="url(#ed35dcec03)"><g clip-path="url(#2333fe2138)"><path fill="#d4af37" d="M 140.054688 75 C 140.054688 39.28125 110.992188 10.222656 75.277344 10.222656 L 75.277344 9.007812 C 76.355469 9.007812 77.433594 9.03125 78.515625 9.085938 C 79.59375 9.136719 80.671875 9.214844 81.746094 9.320312 C 82.820312 9.425781 83.890625 9.558594 84.960938 9.714844 C 86.03125 9.875 87.09375 10.058594 88.152344 10.265625 C 89.214844 10.476562 90.265625 10.714844 91.316406 10.976562 C 92.363281 11.238281 93.402344 11.523438 94.4375 11.835938 C 95.472656 12.152344 96.496094 12.488281 97.515625 12.851562 C 98.53125 13.214844 99.539062 13.605469 100.539062 14.015625 C 101.535156 14.429688 102.523438 14.867188 103.5 15.328125 C 104.476562 15.789062 105.441406 16.273438 106.394531 16.785156 C 107.347656 17.292969 108.289062 17.824219 109.214844 18.378906 C 110.140625 18.933594 111.054688 19.511719 111.953125 20.113281 C 112.851562 20.714844 113.734375 21.335938 114.601562 21.976562 C 115.46875 22.621094 116.320312 23.285156 117.15625 23.972656 C 117.988281 24.65625 118.808594 25.363281 119.609375 26.085938 C 120.410156 26.8125 121.191406 27.558594 121.953125 28.320312 C 122.71875 29.085938 123.464844 29.867188 124.1875 30.667969 C 124.914062 31.46875 125.621094 32.285156 126.304688 33.121094 C 126.988281 33.957031 127.652344 34.808594 128.296875 35.675781 C 128.941406 36.542969 129.5625 37.425781 130.164062 38.324219 C 130.761719 39.222656 131.339844 40.132812 131.894531 41.0625 C 132.449219 41.988281 132.980469 42.929688 133.492188 43.878906 C 134 44.832031 134.484375 45.796875 134.945312 46.773438 C 135.40625 47.75 135.84375 48.738281 136.257812 49.738281 C 136.671875 50.734375 137.058594 51.742188 137.421875 52.761719 C 137.785156 53.777344 138.125 54.804688 138.4375 55.835938 C 138.75 56.871094 139.039062 57.914062 139.300781 58.960938 C 139.5625 60.007812 139.796875 61.0625 140.007812 62.121094 C 140.21875 63.179688 140.402344 64.246094 140.558594 65.3125 C 140.71875 66.382812 140.847656 67.453125 140.953125 68.53125 C 141.058594 69.605469 141.136719 70.683594 141.191406 71.761719 C 141.242188 72.839844 141.269531 73.917969 141.265625 75 " fill-opacity="1" fill-rule="nonzero"/></g></g><g clip-path="url(#7dca7a05b1)"><g clip-path="url(#08e94e91b8)"><path fill="#d4af37" d="M 74.996094 140.050781 C 110.867188 140.050781 140.050781 110.867188 140.050781 74.996094 L 141.269531 74.996094 C 141.269531 76.082031 141.246094 77.164062 141.191406 78.25 C 141.140625 79.332031 141.058594 80.414062 140.953125 81.492188 C 140.847656 82.574219 140.71875 83.648438 140.558594 84.722656 C 140.402344 85.796875 140.214844 86.863281 140.003906 87.929688 C 139.792969 88.992188 139.558594 90.050781 139.292969 91.105469 C 139.03125 92.15625 138.742188 93.203125 138.425781 94.242188 C 138.113281 95.277344 137.773438 96.308594 137.410156 97.332031 C 137.042969 98.351562 136.652344 99.363281 136.238281 100.367188 C 135.824219 101.367188 135.386719 102.359375 134.921875 103.339844 C 134.457031 104.320312 133.972656 105.292969 133.460938 106.246094 C 132.949219 107.203125 132.414062 108.148438 131.855469 109.078125 C 131.300781 110.011719 130.71875 110.925781 130.117188 111.828125 C 129.515625 112.730469 128.890625 113.617188 128.242188 114.488281 C 127.597656 115.359375 126.929688 116.214844 126.242188 117.054688 C 125.554688 117.894531 124.847656 118.714844 124.117188 119.519531 C 123.390625 120.320312 122.640625 121.105469 121.875 121.875 C 121.105469 122.640625 120.320312 123.390625 119.519531 124.117188 C 118.714844 124.847656 117.894531 125.554688 117.054688 126.242188 C 116.214844 126.929688 115.359375 127.597656 114.488281 128.242188 C 113.617188 128.890625 112.730469 129.515625 111.828125 130.117188 C 110.925781 130.71875 110.011719 131.300781 109.078125 131.855469 C 108.148438 132.414062 107.203125 132.949219 106.246094 133.460938 C 105.292969 133.972656 104.320312 134.457031 103.339844 134.921875 C 102.359375 135.386719 101.367188 135.824219 100.367188 136.238281 C 99.363281 136.652344 98.351562 137.042969 97.332031 137.410156 C 96.308594 137.773438 95.277344 138.113281 94.242188 138.425781 C 93.203125 138.742188 92.15625 139.03125 91.105469 139.292969 C 90.050781 139.558594 88.992188 139.792969 87.929688 140.003906 C 86.863281 140.214844 85.796875 140.402344 84.722656 140.558594 C 83.648438 140.71875 82.574219 140.847656 81.492188 140.953125 C 80.414062 141.058594 79.332031 141.140625 78.25 141.191406 C 77.164062 141.246094 76.082031 141.269531 74.996094 141.269531 " fill-opacity="1" fill-rule="nonzero"/></g></g></svg>