<svg xmlns="http://www.w3.org/2000/svg" xmlns:xlink="http://www.w3.org/1999/xlink" width="200" zoomAndPan="magnify" viewBox="0 0 150 149.999998" height="200" preserveAspectRatio="xMidYMid meet" version="1.0"><defs><clipPath id="16b988328b"><path d="M 75 0 C 33.578125 0 0 33.578125 0 75 C 0 116.421875 33.578125 150 75 150 C 116.421875 150 150 116.421875 150 75 C 150 33.578125 116.421875 0 75 0 Z M 75 0 " clip-rule="nonzero"/></clipPath><clipPath id="8d97af7673"><path d="M 18.773438 18.773438 L 131.226562 18.773438 L 131.226562 131.226562 L 18.773438 131.226562 Z M 18.773438 18.773438 " clip-rule="nonzero"/></clipPath><clipPath id="7d074e091c"><path d="M 75 18.773438 C 43.949219 18.773438 18.773438 43.949219 18.773438 75 C 18.773438 106.050781 43.949219 131.226562 75 131.226562 C 106.050781 131.226562 131.226562 106.050781 131.226562 75 C 131.226562 43.949219 106.050781 18.773438 75 18.773438 Z M 75 18.773438 " clip-rule="nonzero"/></clipPath><clipPath id="39d39ac069"><path d="M 18.773438 18.773438 L 131.214844 18.773438 L 131.214844 131.214844 L 18.773438 131.214844 Z M 18.773438 18.773438 " clip-rule="nonzero"/></clipPath><clipPath id="542b7d2dea"><path d="M 74.996094 18.773438 C 43.945312 18.773438 18.773438 43.945312 18.773438 74.996094 C 18.773438 106.046875 43.945312 131.214844 74.996094 131.214844 C 106.046875 131.214844 131.214844 106.046875 131.214844 74.996094 C 131.214844 43.945312 106.046875 18.773438 74.996094 18.773438 Z M 74.996094 18.773438 " clip-rule="nonzero"/></clipPath><clipPath id="604a5fabd7"><path d="M 28.355469 28.355469 L 121.644531 28.355469 L 121.644531 121.644531 L 28.355469 121.644531 Z M 28.355469 28.355469 " clip-rule="nonzero"/></clipPath><clipPath id="830566d65a"><path d="M 75 28.355469 C 49.238281 28.355469 28.355469 49.238281 28.355469 75 C 28.355469 100.761719 49.238281 121.644531 75 121.644531 C 100.761719 121.644531 121.644531 100.761719 121.644531 75 C 121.644531 49.238281 100.761719 28.355469 75 28.355469 Z M 75 28.355469 " clip-rule="nonzero"/></clipPath><clipPath id="dc8669fa7d"><path d="M 9 9 L 74.996094 9 L 74.996094 74.996094 L 9 74.996094 Z M 9 9 " clip-rule="nonzero"/></clipPath><clipPath id="1cc4e30e6e"><path d="M 8.996094 20.246094 L 8.996094 63.75 C 8.996094 69.964844 14.03125 75 20.246094 75 L 63.75 75 C 69.964844 75 75 69.964844 75 63.75 L 75 20.246094 C 75 14.03125 69.964844 8.996094 63.75 8.996094 L 20.246094 8.996094 C 14.03125 8.996094 8.996094 14.03125 8.996094 20.246094 Z M 8.996094 20.246094 " clip-rule="nonzero"/></clipPath><clipPath id="33c0836ebc"><path d="M 9 75.277344 L 74.996094 75.277344 L 74.996094 141.277344 L 9 141.277344 Z M 9 75.277344 " clip-rule="nonzero"/></clipPath><clipPath id="faaf48eb6a"><path d="M 20.246094 141.277344 L 63.75 141.277344 C 69.964844 141.277344 75 136.242188 75 130.027344 L 75 86.523438 C 75 80.3125 69.964844 75.273438 63.75 75.273438 L 20.246094 75.273438 C 14.03125 75.273438 8.996094 80.3125 8.996094 86.523438 L 8.996094 130.027344 C 8.996094 136.242188 14.03125 141.277344 20.246094 141.277344 Z M 20.246094 141.277344 " clip-rule="nonzero"/></clipPath><clipPath id="127d6648f8"><path d="M 75 9.273438 L 141 9.273438 L 141 75.273438 L 75 75.273438 Z M 75 9.273438 " clip-rule="nonzero"/></clipPath><clipPath id="058e8ef454"><path d="M 129.75 9.273438 L 86.246094 9.273438 C 80.03125 9.273438 74.996094 14.3125 74.996094 20.523438 L 74.996094 64.027344 C 74.996094 70.242188 80.03125 75.277344 86.246094 75.277344 L 129.75 75.277344 C 135.964844 75.277344 141 70.242188 141 64.027344 L 141 20.523438 C 141 14.3125 135.964844 9.273438 129.75 9.273438 Z M 129.75 9.273438 " clip-rule="nonzero"/></clipPath><clipPath id="c95d16b036"><path d="M 75.28125 75.28125 L 141.28125 75.28125 L 141.28125 141.28125 L 75.28125 141.28125 Z M 75.28125 75.28125 " clip-rule="nonzero"/></clipPath><clipPath id="da43a9027e"><path d="M 141.28125 130.03125 L 141.28125 86.25 C 141.28125 80.035156 136.246094 75 130.03125 75 L 86.25 75 C 80.035156 75 75 80.035156 75 86.25 L 75 130.03125 C 75 133.015625 76.183594 135.875 78.292969 137.984375 C 80.402344 140.097656 83.265625 141.28125 86.25 141.28125 L 130.03125 141.28125 C 136.246094 141.28125 141.28125 136.246094 141.28125 130.03125 Z M 141.28125 130.03125 " clip-rule="nonzero"/></clipPath></defs><g clip-path="url(#16b988328b)"><rect x="-15" width="180" fill="#000000" y="-15" height="179.999997" fill-opacity="1"/><path stroke-linecap="butt" transform="matrix(0.75, 0, 0, 0.75, 0.00000125, 0.000002)" fill="none" stroke-linejoin="miter" d="M 99.999998 -0.00000266667 C 44.770831 -0.00000266667 -0.00000166667 44.77083 -0.00000166667 99.999997 C -0.00000166667 155.229163 44.770831 199.999996 99.999998 199.999996 C 155.229164 199.999996 199.999997 155.229163 199.999997 99.999997 C 199.999997 44.77083 155.229164 -0.00000266667 99.999998 -0.00000266667 Z M 99.999998 -0.00000266667 " stroke="#ffffff" stroke-width="4" stroke-opacity="1" stroke-miterlimit="4"/></g><g clip-path="url(#8d97af7673)"><g clip-path="url(#7d074e091c)"><path fill="#333333" d="M 18.773438 18.773438 L 131.226562 18.773438 L 131.226562 131.226562 L 18.773438 131.226562 Z M 18.773438 18.773438 " fill-opacity="1" fill-rule="nonzero"/></g></g><g clip-path="url(#39d39ac069)"><g clip-path="url(#542b7d2dea)"><path stroke-linecap="butt" transform="matrix(0.75, 0, 0, 0.75, 18.774447, 18.774449)" fill="none" stroke-linejoin="miter" d="M 74.962201 -0.00134897 C 33.561157 -0.00134897 -0.00134541 33.561153 -0.00134541 74.962197 C -0.00134541 116.363241 33.561157 149.920535 74.962201 149.920535 C 116.363245 149.920535 149.920538 116.363241 149.920538 74.962197 C 149.920538 33.561153 116.363245 -0.00134897 74.962201 -0.00134897 Z M 74.962201 -0.00134897 " stroke="#ffffff" stroke-width="2" stroke-opacity="1" stroke-miterlimit="4"/></g></g><g clip-path="url(#604a5fabd7)"><g clip-path="url(#830566d65a)"><path fill="#4f4f4f" d="M 28.355469 28.355469 L 121.644531 28.355469 L 121.644531 121.644531 L 28.355469 121.644531 Z M 28.355469 28.355469 " fill-opacity="1" fill-rule="nonzero"/></g></g><path stroke-linecap="butt" transform="matrix(0, 0.75, -0.75, 0, 75.370902, 4.634885)" fill="none" stroke-linejoin="miter" d="M 0.00244552 0.499745 L 12.387863 0.499745 " stroke="#ffffff" stroke-width="1" stroke-opacity="1" stroke-miterlimit="4"/><path stroke-linecap="butt" transform="matrix(0.75, 0, 0, 0.75, 135.809643, 74.624998)" fill="none" stroke-linejoin="miter" d="M -0.0013989 0.500003 L 12.384018 0.500003 " stroke="#ffffff" stroke-width="1" stroke-opacity="1" stroke-miterlimit="4"/><path stroke-linecap="butt" transform="matrix(0, 0.75, -0.75, 0, 75.370902, 135.754096)" fill="none" stroke-linejoin="miter" d="M -0.000252575 0.499745 L 12.385165 0.499745 " stroke="#ffffff" stroke-width="1" stroke-opacity="1" stroke-miterlimit="4"/><path stroke-linecap="butt" transform="matrix(0.75, 0, 0, 0.75, 4.960562, 74.624998)" fill="none" stroke-linejoin="miter" d="M 0.000501093 0.500003 L 12.385918 0.500003 " stroke="#ffffff" stroke-width="1" stroke-opacity="1" stroke-miterlimit="4"/><g clip-path="url(#dc8669fa7d)"><g clip-path="url(#1cc4e30e6e)"><path fill="#ffffff" d="M 75 10.222656 C 39.28125 10.222656 10.222656 39.28125 10.222656 75 L 9.007812 75 C 9.007812 73.917969 9.03125 72.839844 9.085938 71.761719 C 9.136719 70.683594 9.214844 69.605469 9.320312 68.53125 C 9.425781 67.453125 9.558594 66.382812 9.714844 65.3125 C 9.875 64.246094 10.058594 63.179688 10.265625 62.121094 C 10.476562 61.0625 10.714844 60.007812 10.976562 58.960938 C 11.238281 57.914062 11.523438 56.871094 11.835938 55.835938 C 12.152344 54.804688 12.488281 53.777344 12.851562 52.761719 C 13.214844 51.742188 13.605469 50.734375 14.015625 49.738281 C 14.429688 48.738281 14.867188 47.75 15.328125 46.773438 C 15.789062 45.796875 16.273438 44.832031 16.785156 43.878906 C 17.292969 42.929688 17.824219 41.988281 18.378906 41.0625 C 18.933594 40.132812 19.511719 39.222656 20.113281 38.324219 C 20.714844 37.425781 21.335938 36.542969 21.976562 35.675781 C 22.621094 34.808594 23.285156 33.957031 23.972656 33.121094 C 24.65625 32.285156 25.363281 31.46875 26.085938 30.667969 C 26.8125 29.867188 27.558594 29.085938 28.320312 28.320312 C 29.085938 27.558594 29.867188 26.8125 30.667969 26.085938 C 31.46875 25.363281 32.285156 24.65625 33.121094 23.972656 C 33.957031 23.285156 34.808594 22.621094 35.675781 21.976562 C 36.542969 21.335938 37.425781 20.714844 38.324219 20.113281 C 39.222656 19.511719 40.132812 18.933594 41.0625 18.378906 C 41.988281 17.824219 42.929688 17.292969 43.878906 16.785156 C 44.832031 16.273438 45.796875 15.789062 46.773438 15.328125 C 47.75 14.867188 48.738281 14.429688 49.738281 14.015625 C 50.734375 13.605469 51.742188 13.214844 52.761719 12.851562 C 53.777344 12.488281 54.804688 12.152344 55.835938 11.835938 C 56.871094 11.523438 57.914062 11.238281 58.960938 10.976562 C 60.007812 10.714844 61.0625 10.476562 62.121094 10.265625 C 63.179688 10.058594 64.246094 9.875 65.3125 9.714844 C 66.382812 9.558594 67.453125 9.425781 68.53125 9.320312 C 69.605469 9.214844 70.683594 9.136719 71.761719 9.085938 C 72.839844 9.03125 73.917969 9.007812 75 9.007812 " fill-opacity="1" fill-rule="nonzero"/></g></g><g clip-path="url(#33c0836ebc)"><g clip-path="url(#faaf48eb6a)"><path fill="#ffffff" d="M 10.222656 75.277344 C 10.222656 110.992188 39.28125 140.054688 75 140.054688 L 75 141.265625 C 73.917969 141.269531 72.839844 141.242188 71.761719 141.191406 C 70.683594 141.136719 69.605469 141.058594 68.53125 140.953125 C 67.453125 140.847656 66.382812 140.71875 65.3125 140.558594 C 64.246094 140.402344 63.179688 140.21875 62.121094 140.007812 C 61.0625 139.796875 60.007812 139.5625 58.960938 139.300781 C 57.914062 139.039062 56.871094 138.75 55.835938 138.4375 C 54.804688 138.125 53.777344 137.785156 52.761719 137.421875 C 51.742188 137.058594 50.734375 136.671875 49.738281 136.257812 C 48.738281 135.84375 47.75 135.40625 46.773438 134.945312 C 45.796875 134.484375 44.832031 134 43.878906 133.492188 C 42.929688 132.980469 41.988281 132.449219 41.0625 131.894531 C 40.132812 131.339844 39.222656 130.761719 38.324219 130.164062 C 37.425781 129.5625 36.542969 128.941406 35.675781 128.296875 C 34.808594 127.652344 33.957031 126.988281 33.121094 126.304688 C 32.285156 125.621094 31.46875 124.914062 30.667969 124.1875 C 29.867188 123.464844 29.085938 122.71875 28.320312 121.953125 C 27.558594 121.191406 26.8125 120.410156 26.085938 119.609375 C 25.363281 118.808594 24.65625 117.988281 23.972656 117.15625 C 23.285156 116.320312 22.621094 115.46875 21.976562 114.601562 C 21.335938 113.734375 20.714844 112.851562 20.113281 111.953125 C 19.511719 111.054688 18.933594 110.140625 18.378906 109.214844 C 17.824219 108.289062 17.292969 107.347656 16.785156 106.394531 C 16.273438 105.441406 15.789062 104.476562 15.328125 103.5 C 14.867188 102.523438 14.429688 101.535156 14.015625 100.539062 C 13.605469 99.539062 13.214844 98.53125 12.851562 97.515625 C 12.488281 96.496094 12.152344 95.472656 11.835938 94.4375 C 11.523438 93.402344 11.238281 92.363281 10.976562 91.316406 C 10.714844 90.265625 10.476562 89.214844 10.265625 88.152344 C 10.058594 87.09375 9.875 86.03125 9.714844 84.960938 C 9.558594 83.890625 9.425781 82.820312 9.320312 81.746094 C 9.214844 80.671875 9.136719 79.59375 9.085938 78.515625 C 9.03125 77.433594 9.007812 76.355469 9.007812 75.277344 " fill-opacity="1" fill-rule="nonzero"/></g></g><g clip-path="url(#127d6648f8)"><g clip-path="url(#058e8ef454)"><path fill="#ffffff" d="M 139.773438 75.277344 C 139.773438 39.558594 110.714844 10.5 74.996094 10.5 L 74.996094 9.289062 C 76.078125 9.285156 77.15625 9.3125 78.234375 9.363281 C 79.3125 9.417969 80.390625 9.496094 81.464844 9.601562 C 82.542969 9.707031 83.613281 9.835938 84.683594 9.996094 C 85.75 10.152344 86.816406 10.335938 87.875 10.546875 C 88.933594 10.757812 89.988281 10.992188 91.035156 11.253906 C 92.082031 11.515625 93.125 11.804688 94.160156 12.117188 C 95.191406 12.429688 96.21875 12.769531 97.234375 13.132812 C 98.253906 13.496094 99.261719 13.882812 100.257812 14.296875 C 101.257812 14.710938 102.246094 15.144531 103.222656 15.609375 C 104.199219 16.070312 105.164062 16.554688 106.117188 17.0625 C 107.066406 17.574219 108.007812 18.105469 108.933594 18.660156 C 109.863281 19.214844 110.773438 19.792969 111.671875 20.390625 C 112.570312 20.992188 113.453125 21.613281 114.320312 22.257812 C 115.1875 22.902344 116.039062 23.566406 116.875 24.25 C 117.710938 24.933594 118.527344 25.640625 119.328125 26.367188 C 120.128906 27.089844 120.910156 27.835938 121.675781 28.601562 C 122.4375 29.363281 123.183594 30.144531 123.910156 30.945312 C 124.632812 31.746094 125.339844 32.566406 126.023438 33.398438 C 126.710938 34.234375 127.375 35.085938 128.019531 35.953125 C 128.660156 36.820312 129.28125 37.703125 129.882812 38.601562 C 130.484375 39.5 131.0625 40.414062 131.617188 41.339844 C 132.171875 42.265625 132.703125 43.207031 133.210938 44.160156 C 133.722656 45.113281 134.207031 46.078125 134.667969 47.054688 C 135.128906 48.03125 135.566406 49.019531 135.980469 50.015625 C 136.390625 51.015625 136.78125 52.023438 137.144531 53.039062 C 137.507812 54.058594 137.84375 55.082031 138.160156 56.117188 C 138.472656 57.148438 138.757812 58.191406 139.019531 59.238281 C 139.28125 60.289062 139.519531 61.339844 139.730469 62.402344 C 139.9375 63.460938 140.121094 64.523438 140.28125 65.59375 C 140.4375 66.660156 140.570312 67.734375 140.675781 68.808594 C 140.78125 69.882812 140.859375 70.960938 140.910156 72.039062 C 140.964844 73.117188 140.988281 74.199219 140.988281 75.277344 " fill-opacity="1" fill-rule="nonzero"/></g></g><g clip-path="url(#c95d16b036)"><g clip-path="url(#da43a9027e)"><path fill="#ffffff" d="M 74.996094 140.050781 C 110.867188 140.050781 140.050781 110.867188 140.050781 74.996094 L 141.269531 74.996094 C 141.269531 76.082031 141.246094 77.164062 141.191406 78.25 C 141.140625 79.332031 141.058594 80.414062 140.953125 81.492188 C 140.847656 82.574219 140.71875 83.648438 140.558594 84.722656 C 140.402344 85.796875 140.214844 86.863281 140.003906 87.929688 C 139.792969 88.992188 139.558594 90.050781 139.292969 91.105469 C 139.03125 92.15625 138.742188 93.203125 138.425781 94.242188 C 138.113281 95.277344 137.773438 96.308594 137.410156 97.332031 C 137.042969 98.351562 136.652344 99.363281 136.238281 100.367188 C 135.824219 101.367188 135.386719 102.359375 134.921875 103.339844 C 134.457031 104.320312 133.972656 105.292969 133.460938 106.246094 C 132.949219 107.203125 132.414062 108.148438 131.855469 109.078125 C 131.300781 110.011719 130.71875 110.925781 130.117188 111.828125 C 129.515625 112.730469 128.890625 113.617188 128.242188 114.488281 C 127.597656 115.359375 126.929688 116.214844 126.242188 117.054688 C 125.554688 117.894531 124.847656 118.714844 124.117188 119.519531 C 123.390625 120.320312 122.640625 121.105469 121.875 121.875 C 121.105469 122.640625 120.320312 123.390625 119.519531 124.117188 C 118.714844 124.847656 117.894531 125.554688 117.054688 126.242188 C 116.214844 126.929688 115.359375 127.597656 114.488281 128.242188 C 113.617188 128.890625 112.730469 129.515625 111.828125 130.117188 C 110.925781 130.71875 110.011719 131.300781 109.078125 131.855469 C 108.148438 132.414062 107.203125 132.949219 106.246094 133.460938 C 105.292969 133.972656 104.320312 134.457031 103.339844 134.921875 C 102.359375 135.386719 101.367188 135.824219 100.367188 136.238281 C 99.363281 136.652344 98.351562 137.042969 97.332031 137.410156 C 96.308594 137.773438 95.277344 138.113281 94.242188 138.425781 C 93.203125 138.742188 92.15625 139.03125 91.105469 139.292969 C 90.050781 139.558594 88.992188 139.792969 87.929688 140.003906 C 86.863281 140.214844 85.796875 140.402344 84.722656 140.558594 C 83.648438 140.71875 82.574219 140.847656 81.492188 140.953125 C 80.414062 141.058594 79.332031 141.140625 78.25 141.191406 C 77.164062 141.246094 76.082031 141.269531 74.996094 141.269531 " fill-opacity="1" fill-rule="nonzero"/></g></g></svg>